
<svg width="1040px" height="761px" viewBox="0 0 1040 761" version="1.1" xmlns="http://www.w3.org/2000/svg" xmlns:xlink="http://www.w3.org/1999/xlink">
    <!-- Generator: Sketch 46.2 (44496) - http://www.bohemiancoding.com/sketch -->
    <desc>Created with Sketch.</desc>
    <defs></defs>
    <g id="Page-1" stroke="none" stroke-width="1" fill="none" fill-rule="evenodd">
        <g id="Desktop-HD" transform="translate(-200.000000, -100.000000)" fill="#23F5E9">
            <g id="Group-10" transform="translate(200.000000, 100.000000)">
                <path d="M839.162065,518.73949 C866.620402,558.420973 892.548464,581.966536 910.690408,595.267377 C936.897576,541.98713 984.509351,426.767636 966.896748,322.167672 C957.10876,263.957272 932.402994,218.893947 897.322153,195.290721 C882.433247,185.257428 866.639651,179.846753 850.817181,179.222075 C863.136379,203.90167 873.434458,230.753223 881.567054,259.507641 C906.859907,348.750132 892.182738,437.906129 839.162065,518.73949 L839.162065,518.73949 Z M939.67902,685 L913.134998,675.831646 C905.512495,673.198387 836.698225,646.91385 767.903204,536.355416 L755.430016,516.29844 L769.577845,497.385106 C821.26073,428.305306 836.505738,354.602887 814.889395,278.334482 C803.879112,239.441055 788.460866,204.997259 769.048505,175.935307 L748,144.432304 L781.319581,126.345467 C792.108503,120.492712 803.686624,116.168017 815.73634,113.477096 C856.543683,104.452898 899.256652,113.13112 936.060256,137.916429 C987.050186,172.23529 1022.26577,233.597911 1035.2298,310.702424 C1063.28485,477.299299 958.619787,653.545049 954.154078,660.964304 L939.67902,685 Z" id="Fill-2"></path>
                <path d="M570.831834,69.1604879 C546.872347,69.1604879 521.759577,72.2264452 495.685735,78.4160267 C400.847304,100.944566 321.731985,204.408611 245.221166,304.460697 C190.920686,375.477495 139.628357,442.544109 81.4932053,483.795171 C67.3846912,493.790768 64.8378545,530.909035 76.4283641,557.358924 C114.4387,644.109177 249.161555,695.64417 321.741595,691.597876 C501.855808,681.611889 577.280616,654.258552 640.605548,613.353492 C695.665274,577.811454 739.240208,538.886291 770.129012,497.64484 C821.738495,428.559884 836.961851,354.851964 815.376208,278.577866 C804.381563,239.681536 788.975603,205.23517 769.600423,176.171048 C722.777071,105.82703 653.724159,69.1604879 570.831834,69.1604879 M314.226025,761 C217.004138,761 62.2045215,697.3069 13.0553789,585.144763 C2.4932147,561.030384 -1.97576287,531.677927 0.81134142,504.603314 C4.29041643,470.897006 18.7256945,443.46678 41.4646213,427.348879 C91.0366349,392.181676 139.224707,329.151745 190.257548,262.431132 C274.130166,152.739061 360.857163,39.3274739 479.693523,11.0995222 C624.084747,-23.2411218 750.744221,22.959683 827.178154,137.803331 C850.560997,172.8552 869.003939,213.894817 881.959169,259.74962 C909.330455,356.447415 889.830336,453.039486 825.563555,539.059292 L825.534723,539.088125 C789.715628,586.942048 740.124393,631.480124 678.135349,671.491347 C592.148376,727.02458 496.589142,751.206237 325.566656,760.692443 C321.885756,760.894277 318.099138,761 314.226025,761" id="Fill-4"></path>
                <path d="M303.041909,652 C295.501636,652 290.775757,651.855964 289.488628,651.807952 C271.468816,651.164591 257.377631,636.040813 258.021195,618.01711 C258.66476,600.012611 273.774123,586.031518 291.793934,586.550048 C294.176084,586.655674 532.074101,593.396558 643.977517,478.839937 C656.579859,465.934312 677.260378,465.694252 690.160489,478.2926 C703.060599,490.890948 703.310341,511.564913 690.707999,524.460935 C574.097916,643.828358 359.502705,652 303.041909,652" id="Fill-6"></path>
                <path d="M755,428 C755,444.0135 742.0135,457 726,457 C709.976951,457 697,444.0135 697,428 C697,411.9865 709.976951,399 726,399 C742.0135,399 755,411.9865 755,428" id="Fill-8"></path>
            </g>
        </g>
    </g>
</svg>