<svg width="144" height="252" viewBox="0 0 144 252" xmlns="http://www.w3.org/2000/svg"><title>white (1)</title><g fill="none"><path d="M8.04 98.276c0-.95 2.047-1.353 3.4-1.353h121.45c1.352 0 1.644.402 1.644 1.353v129.585c0 .95-.585 2.084-1.79 2.523L74.63 251.671c-1.206.439-3.07.439-4.276 0l-59.72-21.287c-1.206-.439-2.594-1.572-2.594-2.523V98.276z" fill="#F7F7F7"/><path fill="#E0E0E0" opacity=".42" d="M130.148 146.92v-14.885H12.61z"/><path d="M137.896 125.634s-58.404 19.312-132.085 0V88.035c67.98 17.703 132.085 0 132.085 0v37.6z" fill="#FFF"/><path d="M137.896 88.035v37.6s-25.949 8.594-65.092 8.594c-19.553 0-42.432-2.158-66.993-8.595V88.035c22.66 5.889 44.881 7.864 64.435 7.864 39.143 0 67.65-7.864 67.65-7.864zm5.702-7.46l-7.2 1.974c-.292.073-28.325 7.68-66.116 7.68-22.221 0-43.42-2.596-63.009-7.68L.146 80.684v49.376l4.24 1.097c22.185 5.815 45.21 8.778 68.418 8.778 39.582 0 65.787-8.522 66.883-8.888l3.911-1.28V80.575z" fill="#F7F7F7"/><path d="M143.671 80.538l-7.273-3.621V.183H6.725v77.355L.037 80.83l6.688 4.645v.11h.146l.402.293.037-.293h2.266s62.278 18.726 125.908.293h.95v-.293h.037l7.2-5.047z" fill="#F7F7F7"/><path d="M27.302 121.318c-4.642-.804-6.945-1.28-11.513-2.304v-3.95c3.655.805 5.519 1.207 9.173 1.865v-3.51c-2.74-.513-4.13-.769-6.87-1.354a3.357 3.357 0 0 1-1.645-.914c-.475-.476-.695-1.024-.695-1.573 0-2.926-.036-4.389-.036-7.278 0-.55.219-.951.694-1.244.475-.293 1.024-.366 1.645-.22 4.605.988 6.907 1.427 11.513 2.195v3.95c-3.692-.622-5.52-.95-9.174-1.719v3.292c2.741.548 4.13.804 6.871 1.317.621.11 1.17.402 1.608.84.439.476.695.988.695 1.537 0 2.999 0 4.462.036 7.461 0 .585-.22 1.024-.658 1.317-.475.292-1.023.402-1.644.292zm10.488-12.984v3.402c2.267.292 3.4.439 5.666.695v3.913a294.7 294.7 0 0 1-5.665-.695v3.365c4.093.549 6.177.768 10.27 1.17v3.914c-5.957-.549-8.918-.914-14.839-1.792.037-7.461.037-11.192 0-18.617 5.921.915 8.918 1.244 14.875 1.83v3.986c-4.13-.403-6.176-.622-10.306-1.17zm27.339 16.788c-.621-1.755-.914-2.67-1.535-4.425-2.96-.11-4.422-.147-7.383-.33-.621 1.72-.95 2.56-1.571 4.28l-4.825-.366c2.595-7.205 3.874-10.826 6.47-18.105 2.85.183 4.275.257 7.163.33 2.156 6.217 4.349 12.472 6.505 18.69-1.937 0-2.924-.037-4.824-.074zm-5.263-14.85c-.914 2.451-1.352 3.695-2.266 6.145 1.79.11 2.705.147 4.495.22a439.428 439.428 0 0 0-2.229-6.364zm23.756 14.668c-4.678.219-7.017.255-11.695.292v-3.95c3.728 0 5.592-.037 9.32-.183v-3.475c-2.778.11-4.167.147-6.981.183-.621 0-1.206-.183-1.645-.548-.475-.366-.694-.842-.694-1.427v-7.278c0-.549.22-.988.694-1.39.475-.402 1.024-.585 1.682-.585 4.678-.037 7.017-.11 11.658-.366v3.95c-3.727.22-5.555.293-9.283.366v3.292c2.778-.037 4.167-.11 6.98-.22a2.565 2.565 0 0 1 1.646.476c.438.365.694.804.694 1.39v7.46c0 .586-.22 1.061-.694 1.464-.512.292-1.024.512-1.682.548zm20.102-1.756c-4.532.585-6.798.804-11.33 1.17-.621.037-1.17-.073-1.645-.439-.438-.329-.694-.804-.694-1.353 0-5.889 0-8.815.036-14.703 0-.549.22-1.024.695-1.426a2.594 2.594 0 0 1 1.644-.695c4.532-.366 6.798-.586 11.33-1.17.622-.074 1.17.036 1.645.365.439.33.694.768.658 1.28 0 5.889-.037 8.815-.037 14.703 0 .585-.219 1.06-.694 1.5a2.666 2.666 0 0 1-1.608.768zm-8.954-3c2.668-.255 3.983-.365 6.615-.694 0-4.28 0-6.4.036-10.68-2.631.292-3.983.439-6.615.695-.036 4.279-.036 6.437-.036 10.68zm32.893-1.17a157.97 157.97 0 0 1-4.02.878c-3.509-4.316-5.227-6.51-8.772-10.936 0 5.047-.036 7.571-.036 12.618-1.828.33-2.742.476-4.606.732.037-7.461.037-11.155.074-18.617 2.668-.402 3.983-.621 6.615-1.097 2.485 3.146 3.691 4.682 6.176 7.754 0-3.584.037-5.376.037-8.96 1.864-.367 2.778-.586 4.605-.988-.037 7.46-.037 11.155-.073 18.616z" fill="#6B7373"/><path d="M29.568 57.971c.11.037.182.11.255.183a.656.656 0 0 1 .183.256c.037.11.073.22.073.329v4.023c0 .037 0 .073-.036.11-.037.037-.073.037-.11.037h-.987c-.036 0-.073 0-.11-.037-.036-.037-.036-.073-.036-.11v-3.62h-.804v3.62c0 .037 0 .073-.037.11-.036.037-.036.037-.11.037h-.876c-.037 0-.074 0-.11-.037-.037-.037-.037-.073-.037-.11v-3.62h-.804v3.62c0 .073-.036.147-.146.147h-.987c-.073 0-.146-.037-.146-.147v-4.718c0-.073.037-.146.146-.146h4.35c.11 0 .219.036.329.073zm4.97-.073c.11 0 .22.036.329.073.11.037.183.11.256.183a.659.659 0 0 1 .183.256c.036.11.073.22.073.329v4.023c0 .037 0 .073-.037.11-.036.037-.073.037-.11.037h-.986c-.037 0-.073 0-.11-.037-.037-.037-.037-.073-.037-.11v-1.28c0-.036 0-.073-.036-.11-.037-.036-.073-.036-.11-.036h-1.389c-.036 0-.073 0-.11.036-.036.037-.036.074-.036.11v1.28c0 .073-.036.147-.146.147h-.987c-.073 0-.146-.037-.146-.147V58.74c0-.11.037-.22.073-.33.037-.109.11-.182.183-.255a.656.656 0 0 1 .256-.183c.11-.037.22-.073.329-.073h2.558zm-.439 2.377v-1.243h-1.68v1.243h1.68zm5.739-2.341c.036.037.036.074.036.11v4.023c0 .11-.036.22-.073.33-.037.11-.11.182-.183.256-.073.073-.146.146-.256.182-.11.037-.219.074-.328.074h-2.12c-.11 0-.22-.037-.33-.074a.656.656 0 0 1-.255-.182.656.656 0 0 1-.183-.256c-.036-.11-.073-.22-.073-.33v-1.536c0-.073.037-.146.146-.146h.987c.073 0 .146.036.146.146v1.024c0 .037 0 .073.037.11.036.037.073.037.11.037h1.023c.036 0 .073 0 .11-.037.036-.037.036-.037.036-.11v-3.51c0-.037 0-.074.037-.11.036-.037.036-.037.11-.037h.986c-.037 0 0 .036.037.036zm4.458-.036c.11 0 .22.036.33.073.109.037.182.11.255.183a.656.656 0 0 1 .183.256c.037.11.073.22.073.329v3.328c0 .11-.036.22-.073.33a.656.656 0 0 1-.183.256.656.656 0 0 1-.256.182c-.11.037-.219.074-.329.074h-2.521c-.11 0-.22-.037-.33-.074a.656.656 0 0 1-.255-.182.656.656 0 0 1-.183-.256 1.069 1.069 0 0 1-.073-.33V58.74c0-.11.037-.22.073-.33a.656.656 0 0 1 .183-.255 1.11 1.11 0 0 1 .256-.183c.11-.037.219-.073.329-.073h2.521zm-.402 1.207h-1.68v2.56h1.68v-2.56zm6.689 3.657c.036.037.036.073 0 .073 0 .037-.037.037-.073.037h-1.133c-.037 0-.073 0-.11-.037-.037-.036-.073-.036-.073-.073l-.768-1.353c0-.037-.036-.037-.036-.037h-.84c-.037 0-.037 0-.037.037v1.317c0 .073-.037.146-.147.146h-.986c-.073 0-.146-.037-.146-.146v-4.718c0-.074.036-.147.146-.147h3.216c.11 0 .22.037.329.073.11.037.183.11.256.183a.656.656 0 0 1 .182.256c.037.11.074.22.074.33v1.865a.732.732 0 0 1-.147.475.766.766 0 0 1-.402.293h-.036c-.037 0-.037.036-.037.036l.768 1.39zm-1.426-3.694H47.44v1.207h1.717v-1.207zm8.114 2.597c.037 0 .073 0 .11.037.036.036.036.073.036.11v.95c0 .037 0 .073-.036.11-.037.037-.073.037-.11.037h-3.07c-.073 0-.146-.037-.146-.147v-4.718c0-.073.036-.146.146-.146h.987c.073 0 .146.036.146.146v3.511c0 .037 0 .073.037.11.036.037.073.037.11.037h1.79v-.037zm4.605-3.731c.037.037.037.074.037.11v.914c0 .037 0 .074-.037.11-.036.037-.073.037-.11.037h-2.375c-.037 0-.037 0-.037.036v.768c0 .037 0 .037.037.037h2.047c.036 0 .073 0 .11.037.036.036.036.073.036.11v.694c0 .037 0 .073-.037.11-.036.037-.036.037-.11.037h-2.046c-.037 0-.037 0-.037.036v.768c0 .037 0 .037.037.037h2.375c.037 0 .074 0 .11.036.037.037.037.073.037.11v.878c0 .036 0 .073-.037.11-.036.036-.073.036-.11.036h-3.545c-.073 0-.146-.036-.146-.146V58.08c0-.036 0-.072.037-.109.036-.037.073-.037.11-.037h3.508c.073-.036.11 0 .146 0zm4.496-.036c.11 0 .219.036.329.073.11.037.182.11.255.183a.656.656 0 0 1 .183.256c.037.11.073.22.073.329v4.023c0 .037 0 .073-.036.11-.037.037-.073.037-.11.037h-.987c-.036 0-.073 0-.11-.037-.036-.037-.036-.073-.036-.11v-1.28c0-.036 0-.073-.037-.11-.036-.036-.073-.036-.11-.036h-1.388c-.037 0-.073 0-.11.036-.036.037-.036.074-.036.11v1.28c0 .073-.037.147-.146.147h-.987c-.073 0-.146-.037-.146-.147V58.74c0-.11.036-.22.073-.33a.656.656 0 0 1 .182-.255.656.656 0 0 1 .256-.183c.11-.037.22-.073.33-.073h2.558zm-.439 2.377v-1.243h-1.681v1.243h1.681zm6.506-.073c.036.037.036.073.036.11v1.755c0 .11-.036.22-.073.33-.037.11-.11.182-.183.256-.073.073-.146.146-.256.182-.11.037-.219.074-.328.074h-2.522c-.11 0-.22-.037-.33-.074-.109-.036-.182-.11-.255-.182-.073-.074-.146-.147-.183-.256a1.069 1.069 0 0 1-.073-.33V58.74c0-.11.037-.22.073-.33.037-.109.11-.182.183-.255a1.11 1.11 0 0 1 .256-.183c.11-.037.219-.073.329-.073h2.924c.036 0 .073 0 .11.036.036.037.036.074.036.11v.951c0 .037 0 .073-.037.11-.036.036-.073.036-.11.036h-2.375c-.037 0-.073 0-.11.037-.036.037-.036.037-.036.11v2.304c0 .036 0 .073.036.11.037.036.073.036.11.036h1.389c.036 0 .073 0 .11-.036.036-.037.036-.037.036-.11v-1.244c0-.036 0-.073.036-.11.037-.036.074-.036.11-.036h.987c.036-.037.073-.037.11 0zm5.226-2.268c.037.037.037.074.037.11v4.023c0 .11-.037.22-.074.33a.656.656 0 0 1-.182.256.656.656 0 0 1-.256.182c-.11.037-.22.074-.33.074h-2.52c-.11 0-.22-.037-.33-.074a.656.656 0 0 1-.256-.182.656.656 0 0 1-.182-.256 1.069 1.069 0 0 1-.074-.33v-4.023c0-.073.037-.146.147-.146h.986c.074 0 .147.036.147.146v3.511c0 .037 0 .073.036.11.037.037.073.037.11.037h1.389c.036 0 .073 0 .11-.037.036-.037.036-.037.036-.11v-3.51c0-.037 0-.074.036-.11.037-.037.074-.037.11-.037h.987c.036 0 .073.036.073.036zm4.934 0c.037.037.037.074.037.11v.914c0 .037 0 .074-.037.11-.037.037-.073.037-.11.037h-2.375c-.037 0-.037 0-.037.036v.768c0 .037 0 .037.037.037h2.046c.037 0 .074 0 .11.037.037.036.037.073.037.11v.694c0 .037 0 .073-.037.11-.036.037-.036.037-.11.037h-2.046c-.037 0-.037 0-.037.036v.768c0 .037 0 .037.037.037h2.375c.037 0 .073 0 .11.036.037.037.037.073.037.11v.878c0 .036 0 .073-.037.11-.037.036-.073.036-.11.036h-3.545c-.073 0-.146-.036-.146-.146V58.08c0-.036 0-.072.037-.109.036-.037.073-.037.11-.037h3.507c.073-.036.11 0 .146 0zm7.602-.036c.037 0 .073 0 .11.036.036.037.036.074.036.11v4.718c0 .037 0 .073-.036.11-.037.037-.073.037-.11.037h-.987c-.036 0-.073 0-.11-.037-.036-.037-.036-.073-.036-.11v-1.646c0-.036 0-.073-.037-.11-.036-.036-.036-.036-.11-.036h-1.388c-.037 0-.073 0-.11.037-.036.036-.036.036-.036.11v1.645c0 .073-.037.147-.146.147h-.987c-.073 0-.146-.037-.146-.147v-4.718c0-.073.036-.146.146-.146h.987c.073 0 .146.036.146.146v1.61c0 .073.036.146.146.146h1.389c.036 0 .073 0 .11-.037.036-.036.036-.073.036-.11v-1.609c0-.036 0-.073.037-.11.036-.036.073-.036.11-.036h.986zm4.605 0c.11 0 .22.036.329.073.11.037.183.11.256.183a.659.659 0 0 1 .183.256c.036.11.073.22.073.329v4.023c0 .037 0 .073-.037.11-.036.037-.073.037-.11.037h-.986c-.037 0-.073 0-.11-.037-.036-.037-.036-.073-.036-.11v-1.28c0-.036 0-.073-.037-.11-.037-.036-.073-.036-.11-.036h-1.389c-.036 0-.073 0-.11.036-.036.037-.036.074-.036.11v1.28c0 .073-.036.147-.146.147h-.987c-.073 0-.146-.037-.146-.147V58.74c0-.11.037-.22.073-.33.037-.109.11-.182.183-.255.073-.073.146-.146.256-.183.11-.037.22-.073.329-.073h2.558zm-.402 2.377v-1.243h-1.681v1.243h1.681zm3.618-1.134c-.036.037-.036.037-.036.11v2.304c0 .037 0 .073.036.11.037.037.073.037.11.037h2.266c.037 0 .073 0 .11.036.036.037.036.073.036.11v.95c0 .037 0 .074-.036.11-.037.037-.073.037-.11.037h-2.815c-.109 0-.219-.036-.328-.073-.11-.037-.183-.11-.256-.183-.073-.073-.146-.146-.183-.256a1.069 1.069 0 0 1-.073-.33v-3.327c0-.11.037-.22.073-.33.037-.11.11-.182.183-.256a1.11 1.11 0 0 1 .256-.182c.11-.037.22-.074.329-.074h2.814c.037 0 .073 0 .11.037.036.037.036.073.036.11v.95c0 .037 0 .074-.036.11-.037.037-.073.037-.11.037h-2.266c-.037-.073-.073-.037-.11-.037zm6.469.842v.036l1.645 2.707c.037.036.037.073 0 .073 0 .036-.037.036-.073.036h-1.17c-.036 0-.073 0-.11-.036-.036-.037-.072-.037-.072-.073l-1.06-1.939c0-.036-.037-.036-.037 0l-.585.659c-.036.036-.036.073-.073.11 0 .036-.036.072-.036.109v1.06c0 .074-.037.147-.146.147h-.987c-.073 0-.146-.037-.146-.146v-4.718c0-.074.036-.147.146-.147h.987c.073 0 .146.037.146.147v2.12l1.827-2.157c.037-.037.073-.037.11-.073.036-.037.073-.037.11-.037h1.169c.037 0 .073 0 .073.037 0 .036 0 .036-.036.073l-1.682 2.012zm3.838 2.743c0 .073-.037.146-.146.146h-.987c-.073 0-.146-.037-.146-.146v-4.718c0-.074.036-.147.146-.147h.987c.073 0 .146.037.146.147v4.718zm4.788-4.755c.11.037.182.11.256.183a.647.647 0 0 1 .182.256c.037.11.073.22.073.329v4.023c0 .037 0 .073-.036.11-.037.037-.073.037-.11.037h-.987c-.036 0-.073 0-.11-.037-.036-.037-.036-.073-.036-.11v-3.51c0-.037 0-.074-.036-.11-.037-.037-.073-.037-.11-.037h-1.389c-.036 0-.073 0-.11.036-.036.037-.036.037-.036.11v3.511c0 .073-.037.147-.146.147h-.987c-.073 0-.146-.037-.146-.147v-4.718c0-.073.036-.146.146-.146h3.216c.146 0 .256.036.366.073zm5.738 2.231c.036.037.036.073.036.11v1.755c0 .11-.036.22-.073.33a.656.656 0 0 1-.182.256c-.074.073-.147.146-.256.182-.11.037-.22.074-.33.074h-2.521c-.11 0-.22-.037-.329-.074a.656.656 0 0 1-.256-.182.656.656 0 0 1-.183-.256c-.036-.11-.073-.22-.073-.33V58.74c0-.11.037-.22.073-.33a.656.656 0 0 1 .183-.255 1.11 1.11 0 0 1 .256-.183c.11-.037.22-.073.329-.073h2.924c.036 0 .073 0 .11.036.036.037.036.074.036.11v.951c0 .037 0 .073-.037.11-.036.036-.073.036-.11.036h-2.375c-.036 0-.073 0-.11.037-.036.037-.036.037-.036.11v2.304c0 .036 0 .073.037.11.036.036.073.036.11.036h1.388c.037 0 .073 0 .11-.036.036-.037.036-.037.036-.11v-1.244c0-.036 0-.073.037-.11.036-.036.073-.036.11-.036h.986c.037-.037.073-.037.11 0z" fill="#353535"/><path d="M54.75 23.664c.657.292 1.205.658 1.644 1.134a5.75 5.75 0 0 1 1.133 1.646c.292.658.438 1.316.438 2.048V54.57a.802.802 0 0 1-.255.621c-.183.147-.366.256-.622.256h-6.25c-.255 0-.438-.073-.584-.256-.146-.146-.22-.365-.22-.621v-23.7h-5.007v23.7a.923.923 0 0 1-.219.621.795.795 0 0 1-.585.256h-5.665a.801.801 0 0 1-.62-.256c-.184-.146-.257-.365-.257-.621v-23.7h-4.97v23.7c0 .585-.293.84-.84.84h-6.214c-.585 0-.84-.292-.84-.84V24.103c0-.585.292-.841.84-.841h27.046c.73 0 1.425.11 2.046.402z" fill="#C53C02"/><path d="M54.75 23.664c.657.292 1.205.658 1.644 1.134a5.75 5.75 0 0 1 1.133 1.646c.292.658.438 1.316.438 2.048v2.34l-7.894.037h-17.36l-7.895-.036v-6.73c0-.585.293-.841.84-.841h27.047c.73 0 1.425.11 2.046.402z" fill="#751B00"/><path d="M85.157 47.62c.256 0 .475.073.622.256.146.183.256.366.256.622v6.072a.802.802 0 0 1-.256.621c-.147.183-.366.256-.622.256H63.813c-.585 0-.914-.292-.914-.877V24.103c0-.585.293-.878.914-.878h6.542c.585 0 .914.293.914.878v22.676c0 .256.073.439.256.585.183.147.402.22.658.22h12.974v.036z" fill="#265A8F"/><path d="M71.196 55.447h-7.383c-.585 0-.914-.292-.914-.877V24.103c0-.585.293-.878.914-.878h6.542c.585 0 .914.293.914.878v22.676c-.037.256-.073 8.668-.073 8.668z" fill="#162F51"/><path d="M117.978 23.262a.88.88 0 0 1 .658.256.802.802 0 0 1 .255.621v30.54a.802.802 0 0 1-.255.622.88.88 0 0 1-.658.256h-6.652a.88.88 0 0 1-.658-.256.802.802 0 0 1-.256-.622V44.036c0-.256-.073-.439-.256-.585-.146-.147-.365-.22-.621-.22h-9.32a1.02 1.02 0 0 0-.658.22c-.182.146-.255.366-.255.585v10.643c0 .585-.293.878-.914.878h-6.579c-.621 0-.914-.293-.914-.878V24.14c0-.585.293-.877.914-.877h6.579c.621 0 .914.292.914.877v10.314c0 .586.292.878.913.878h9.32c.256 0 .475-.073.621-.256.147-.183.256-.366.256-.622V24.14c0-.256.073-.439.256-.621a.88.88 0 0 1 .658-.256h6.652z" fill="#FDEE00"/><path d="M99.338 44v10.643c0 .585-.292.877-.914.877h-6.578c-.622 0-.914-.292-.914-.877V24.139c0-.585.292-.877.914-.877h6.578c.622 0 .914.292.914.877V44zm18.64-20.738a.88.88 0 0 1 .658.256.802.802 0 0 1 .255.621v30.54a.802.802 0 0 1-.255.622.88.88 0 0 1-.658.256h-6.652a.88.88 0 0 1-.658-.256.802.802 0 0 1-.256-.622V24.14a.8.8 0 0 1 .256-.622.88.88 0 0 1 .658-.256h6.652z" fill="#ECC700"/><path d="M52.849 153.797v58.08c0 1.098-.548 1.683-1.681 1.683H39.07c-1.096 0-1.681-.549-1.681-1.682v-43.342c0-.219-.146-.329-.402-.292-.256.036-.585.183-.914.475l-4.276 3.329c-.366.292-.658.365-.914.22-.256-.147-.402-.44-.402-.915v-12.29c0-.475.146-.95.402-1.462s.585-.878.914-1.17l4.313-3.33c.365-.292.804-.511 1.388-.694a5.198 5.198 0 0 1 1.572-.256h12.098c1.096-.037 1.68.549 1.68 1.646zm56.613 26.48a7.191 7.191 0 0 0-.877 1.097c-.293.44-.439.878-.439 1.353.073.476.22.951.512 1.39.292.476.585.878.877 1.244l.804.878.695.95 1.132 1.244c.293.366.549.805.731 1.353.22.549.293 1.061.293 1.536v11.924c0 .292 0 .585-.037.841-.036.256-.073.549-.146.841 0 .183-.036.33-.073.44-.073.475-.22.95-.439 1.499-.073.183-.146.366-.255.622-.183.402-.366.804-.622 1.243-.11.11-.182.22-.182.366-.074.073-.11.073-.147.073-.036 0-.073.037-.146.073-.11.22-.22.402-.365.512a.604.604 0 0 1-.366.366c-.073.11-.183.256-.365.439l-.366.366c-.11.073-.22.146-.365.256-.11.11-.22.182-.256.219-.073.037-.146.11-.256.22-.073.073-.11.073-.146.073-.037 0-.073.036-.146.073l-.366.183c-.475.292-.987.585-1.535.84-.548.257-1.17.44-1.79.586h-.44c-.292.073-.547.11-.803.146-.22.037-.512.037-.804.037H76.313c-.475 0-.804-.037-1.06-.073a9.254 9.254 0 0 1-3.582-1.06c-1.096-.586-2.083-1.318-2.924-2.232a10.223 10.223 0 0 1-1.973-3.109c-.476-1.17-.695-2.414-.695-3.767v-11.923c0-.476.11-.988.293-1.536.219-.55.438-1.025.73-1.354l1.06-1.243.804-.951.805-.878c.292-.366.584-.768.877-1.244.292-.475.438-.95.438-1.39.073-.475-.073-.914-.365-1.353a7.191 7.191 0 0 0-.877-1.097l-.878-1.134-1.937-2.45c-.292-.366-.511-.805-.694-1.354a4.825 4.825 0 0 1-.256-1.536v-11.484c0-1.39.256-2.743.804-3.987a9.479 9.479 0 0 1 2.193-3.255 11.259 11.259 0 0 1 3.29-2.194 9.852 9.852 0 0 1 3.983-.842h26.497c1.39 0 2.742.293 3.984.842 1.243.548 2.34 1.28 3.253 2.194a10.21 10.21 0 0 1 2.193 3.255 9.872 9.872 0 0 1 .84 3.987v11.411c0 .476-.109.988-.292 1.536-.219.549-.438 1.024-.73 1.354l-1.828 2.45-.804 1.134zm-10.855-14.813H80.808v10.973h17.799v-10.973zm0 22.64H80.808v12.033h17.8v-12.033z" fill="#6B7373"/></g></svg>